<svg version="1.1" xmlns="http://www.w3.org/2000/svg" viewBox="0 0 906.8933782956561 410.0467182162885" width="2720.6801348869685" height="1230.1401546488655">
  <!-- svg-source:excalidraw -->
  
  <defs>
    <style class="style-fonts">
      @font-face {
        font-family: "Virgil";
        src: url("https://excalidraw.com/Virgil.woff2");
      }
      @font-face {
        font-family: "Cascadia";
        src: url("https://excalidraw.com/Cascadia.woff2");
      }
    </style>
  </defs>
  <rect x="0" y="0" width="906.8933782956561" height="410.0467182162885" fill="#ffffff"></rect><g stroke-linecap="round"><g transform="translate(157.78733238494 383.554586610322) rotate(0 295.7963440448045 -70.14236910991096)"><path d="M-1.12 0.63 C15.23 -16.21, 51.14 -74.23, 97.5 -100.18 C143.86 -126.14, 217.39 -155, 277.04 -155.1 C336.69 -155.19, 402.79 -129.07, 455.4 -100.75 C508.01 -72.43, 569.86 -4.75, 592.71 14.81 M0.49 -0.08 C16.69 -16.81, 50.33 -73.12, 96.3 -98.74 C142.26 -124.37, 216.37 -153.62, 276.3 -153.83 C336.23 -154.05, 403.3 -128.11, 455.85 -100.04 C508.4 -71.98, 569.17 -4.75, 591.62 14.58" stroke="#000000" stroke-width="4" fill="none"></path></g></g><mask></mask><g stroke-linecap="round"><g transform="translate(148.20242780682668 373.2357228969848) rotate(307.69973626564223 6.167313414968191 -28.578239745720197)"><path d="M0.02 -0.22 C1.76 -9.55, 9.64 -47.6, 11.57 -56.93 M-1.43 -1.38 C0.58 -10.44, 11.2 -46, 13.76 -55.49" stroke="#000000" stroke-width="2" fill="none"></path></g></g><mask></mask><g stroke-linecap="round"><g transform="translate(156.82099262785027 308.7617074201354) rotate(307.69973626564223 3.821247491473173 26.418837501960127)"><path d="M-0.21 -0.32 C1.46 8.58, 7.92 44.17, 9.42 53.14 M-1.78 -1.53 C-0.14 7.54, 7.27 44.98, 8.94 54.37" stroke="#000000" stroke-width="2" fill="none"></path></g></g><mask></mask><g stroke-linecap="round"><g transform="translate(159.8053170290949 349.42458287762264) rotate(307.69973626564223 8.715426502115179 -0.16976167165267952)"><path d="M-0.64 -1.18 C2.5 -0.88, 14.86 0.64, 18.07 0.84 M1.23 0.82 C4.3 0.83, 14.45 -1.09, 17.3 -1.03" stroke="#000000" stroke-width="2" fill="none"></path></g></g><mask></mask><g stroke-linecap="round"><g transform="translate(153.10114389307137 339.79524032117496) rotate(307.69973626564223 5.984116302133941 0.40985068004857794)"><path d="M0.72 0.87 C2.33 1.04, 8.26 1.33, 9.96 1.35 M-0.36 0.29 C1.62 0.07, 10.54 -0.81, 12.33 -0.44" stroke="#000000" stroke-width="2" fill="none"></path></g></g><mask></mask><g stroke-linecap="round"><g transform="translate(145.48401049290953 332.3278205839994) rotate(307.69973626564223 2.1151937075658793 0.32593796758911253)"><path d="M0.07 -0.57 C1.15 -0.54, 4.67 0.5, 5.59 0.68 M-1.36 1.74 C-0.36 1.38, 3.57 -0.54, 4.59 -1.09" stroke="#000000" stroke-width="2" fill="none"></path></g></g><mask></mask><g stroke-linecap="round" transform="translate(129.14134604532535 316.2819266385319) rotate(307.69973626564223 4.771492826680685 4.269230423872159)"><path d="M4.39 0.89 C5.5 0.71, 7.44 0.28, 8.29 0.75 C9.13 1.23, 9.37 2.97, 9.47 3.74 C9.58 4.52, 9.29 4.69, 8.93 5.39 C8.58 6.09, 8.2 7.47, 7.32 7.94 C6.44 8.42, 4.61 8.32, 3.65 8.23 C2.69 8.15, 2.28 8.08, 1.56 7.41 C0.84 6.74, -0.75 5.13, -0.67 4.22 C-0.58 3.31, 1.17 2.49, 2.07 1.95 C2.96 1.4, 4.31 1.14, 4.72 0.96 C5.12 0.78, 4.36 1.06, 4.52 0.88 M4.89 -0.35 C5.96 -0.3, 6.21 1.24, 6.71 1.78 C7.22 2.32, 7.62 2.01, 7.9 2.9 C8.17 3.79, 8.38 6.28, 8.38 7.12 C8.37 7.96, 8.47 7.79, 7.88 7.94 C7.29 8.1, 6.01 8.39, 4.82 8.05 C3.62 7.7, 1.28 6.74, 0.71 5.89 C0.13 5.05, 1.46 3.69, 1.37 3 C1.27 2.31, -0.22 2.26, 0.13 1.74 C0.49 1.22, 3.02 0.21, 3.49 -0.11 C3.97 -0.44, 2.99 -0.18, 2.98 -0.22" stroke="#000000" stroke-width="2" fill="none"></path></g><g stroke-linecap="round"><g transform="translate(131.63857802426242 318.7469293510059) rotate(307.69973626564223 -2.7982665237140623 9.051071875026253)"><path d="M0.71 -0.83 C-0.37 0.53, -5.34 5.06, -5.39 8.23 C-5.43 11.4, -0.32 16.45, 0.45 18.17 M-0.37 1.35 C-1.7 2.82, -6.36 6.33, -6.31 9.26 C-6.26 12.19, -0.98 17.26, -0.08 18.93" stroke="#000000" stroke-width="2" fill="none"></path></g></g><mask></mask><g stroke-linecap="round"><g transform="translate(126.42098932955128 319.2769950137286) rotate(307.69973626564223 -4.2865207114830355 16.63812068953871)"><path d="M-0.06 0.73 C-1.25 3.61, -7.98 11.15, -7.89 16.56 C-7.8 21.98, -1.13 30.6, 0.46 33.21 M-1.56 0.07 C-2.87 3.12, -9.2 12.35, -9.03 17.58 C-8.85 22.8, -2.4 28.77, -0.51 31.4" stroke="#000000" stroke-width="2" fill="none"></path></g></g><mask></mask><g stroke-linecap="round"><g transform="translate(121.0234230707722 323.6557824329868) rotate(307.69973626564223 -4.427913034939934 20.056518886696153)"><path d="M-0.99 1.04 C-2.52 4.44, -9.84 13.82, -9.9 20.04 C-9.96 26.26, -3.13 35.12, -1.36 38.33 M0.68 0.53 C-0.42 4.13, -7.83 14.83, -7.77 21.34 C-7.71 27.85, 0.1 36.93, 1.04 39.58" stroke="#000000" stroke-width="2" fill="none"></path></g></g><mask></mask><g stroke-linecap="round"><g transform="translate(137.37509038983285 302.9282597597184) rotate(307.69973626564223 2.649983134553395 9.05114872865451)"><path d="M0.25 -0.26 C1.29 1.56, 6.33 7.06, 6.37 10.2 C6.42 13.34, 1.56 16.93, 0.52 18.57 M-1.07 -1.44 C-0.16 0.12, 5.51 5.11, 5.69 8.6 C5.88 12.1, 0.91 17.99, 0.03 19.54" stroke="#000000" stroke-width="2" fill="none"></path></g></g><mask></mask><g stroke-linecap="round"><g transform="translate(138.94775465529472 289.812531533832) rotate(307.69973626564223 4.530045766508977 17.162596564650528)"><path d="M0.52 1 C2.09 3.79, 9.44 11.01, 9.72 16.48 C10.01 21.96, 3.34 30.99, 2.22 33.85 M-0.67 0.48 C0.77 3.44, 8.68 12.43, 9.05 17.67 C9.42 22.91, 2.4 29.65, 1.53 31.93" stroke="#000000" stroke-width="2" fill="none"></path></g></g><mask></mask><g stroke-linecap="round"><g transform="translate(142.65467736589824 281.6744175680424) rotate(307.69973626564223 4.962796855752686 19.191602987816196)"><path d="M0.52 -0.66 C2.2 2.72, 10.59 14.68, 10.59 21.3 C10.59 27.92, 2.26 36.09, 0.52 39.05 M-0.66 1.6 C0.83 5.17, 9.55 13.7, 9.71 19.6 C9.86 25.5, 1.74 34.14, 0.25 37.01" stroke="#000000" stroke-width="2" fill="none"></path></g></g><mask></mask><g stroke-linecap="round"><g transform="translate(574.2064213511479 264.212952558357) rotate(381.43618027784925 5.810931257165635 -28.94280981473989)"><path d="M-0.24 0.4 C1.79 -9.18, 9.03 -46.82, 11.36 -56.37 M-1.82 -0.44 C0.62 -9.88, 10.88 -49.09, 13.44 -58.29" stroke="#000000" stroke-width="2" fill="none"></path></g></g><mask></mask><g stroke-linecap="round"><g transform="translate(585.6242013340449 212.42677288976193) rotate(381.43618027784925 4.251831443612218 27.32103061194934)"><path d="M-1.2 0.39 C0.46 9.26, 8.2 44.73, 9.7 53.62 M0.38 -0.45 C2 8.58, 7.71 45.84, 9.36 55.09" stroke="#000000" stroke-width="2" fill="none"></path></g></g><mask></mask><g stroke-linecap="round"><g transform="translate(569.3270964134027 251.44563459317254) rotate(381.43618027784925 9.812145753697564 0.3352314623299719)"><path d="M1.16 -0.12 C4.19 -0.13, 14.15 0.12, 16.99 0.36 M0.31 -1.23 C3.83 -1.06, 16.43 1.78, 19.31 1.9" stroke="#000000" stroke-width="2" fill="none"></path></g></g><mask></mask><g stroke-linecap="round"><g transform="translate(580.0578705990935 237.86670164912113) rotate(381.43618027784925 5.165624537161989 0.3153627864021473)"><path d="M-0.74 0.01 C0.91 0.3, 9.34 1.37, 11.07 1.67 M1.08 -1.04 C2.51 -1.05, 8.53 -0.13, 10.35 0.05" stroke="#000000" stroke-width="2" fill="none"></path></g></g><mask></mask><g stroke-linecap="round"><g transform="translate(586.6352129940198 226.41169443762612) rotate(381.43618027784925 3.0269664134831373 0.3130158143673043)"><path d="M0.43 0.96 C1.33 1.14, 3.6 1.11, 4.67 1.08 M-0.8 0.42 C0.53 0.28, 5.6 -0.21, 6.85 -0.48" stroke="#000000" stroke-width="2" fill="none"></path></g></g><mask></mask><g stroke-linecap="round" transform="translate(592.4082823794882 205.05571736062575) rotate(381.43618027784925 4.771492826680628 4.269230423872159)"><path d="M6.3 0.91 C7.15 1.45, 8.93 2.46, 9.58 3.4 C10.23 4.33, 10.49 5.93, 10.18 6.51 C9.87 7.09, 8.62 6.67, 7.72 6.9 C6.82 7.12, 5.78 7.91, 4.77 7.89 C3.76 7.87, 2.62 7.47, 1.67 6.78 C0.71 6.08, -0.75 4.48, -0.94 3.7 C-1.12 2.92, -0.21 2.56, 0.56 2.08 C1.32 1.6, 2.44 1.03, 3.66 0.79 C4.87 0.55, 7.08 0.49, 7.86 0.64 C8.65 0.8, 8.41 1.5, 8.39 1.72 M5.44 -0.5 C6.6 -0.18, 9.78 0.48, 10.21 1.28 C10.65 2.08, 8.48 3.1, 8.04 4.31 C7.61 5.53, 8.3 8.05, 7.6 8.56 C6.9 9.08, 4.65 7.49, 3.82 7.4 C2.98 7.31, 3.19 8.67, 2.6 8.03 C2.02 7.38, 0.38 4.61, 0.3 3.51 C0.22 2.41, 1.84 1.82, 2.13 1.41 C2.43 1.01, 1.07 1.16, 2.04 1.08 C3.02 0.99, 7.45 0.93, 7.97 0.9 C8.5 0.86, 5.49 0.89, 5.19 0.85" stroke="#000000" stroke-width="2" fill="none"></path></g><g stroke-linecap="round"><g transform="translate(590.8782121732598 196.67739216175568) rotate(381.43618027784925 -2.9414137924577517 9.910923380484604)"><path d="M1.17 0.76 C0.36 1.98, -5.76 5.2, -5.87 8.36 C-5.98 11.52, -0.63 17.72, 0.5 19.7 M0.32 0.12 C-0.6 1.98, -7 6.54, -7.05 9.45 C-7.1 12.37, -1.44 16.14, 0 17.61" stroke="#000000" stroke-width="2" fill="none"></path></g></g><mask></mask><g stroke-linecap="round"><g transform="translate(582.9103496102861 187.23457466607874) rotate(381.43618027784925 -2.9976820367642176 16.200926925914757)"><path d="M-0.44 -0.84 C-1.8 2.04, -7.39 12.35, -7.03 18.03 C-6.67 23.71, 0.22 30.8, 1.72 33.24 M1.54 1.33 C-0.05 3.78, -7.69 11.13, -7.71 16.15 C-7.73 21.17, 0.28 29.07, 1.42 31.45" stroke="#000000" stroke-width="2" fill="none"></path></g></g><mask></mask><g stroke-linecap="round"><g transform="translate(574.8133681865482 180.2235722605448) rotate(381.43618027784925 -3.844064068001444 19.31675417991036)"><path d="M0.5 0.47 C-0.74 4.2, -7.93 15.12, -7.9 21.53 C-7.87 27.95, -0.35 36.01, 0.7 38.97 M-0.7 -0.33 C-1.98 3.15, -8.59 13.76, -8.38 19.96 C-8.18 26.16, -0.54 34.03, 0.52 36.88" stroke="#000000" stroke-width="2" fill="none"></path></g></g><mask></mask><g stroke-linecap="round"><g transform="translate(603.1085208834246 203.0970530058642) rotate(381.43618027784925 2.9016326195358033 10.280966411461861)"><path d="M0.88 1.04 C1.96 2.58, 7.32 6.53, 6.97 9.69 C6.63 12.86, 0.1 18.34, -1.19 20.02 M-0.11 0.54 C0.86 1.68, 6.41 4.91, 6.61 7.83 C6.81 10.75, 2.33 16.48, 1.08 18.08" stroke="#000000" stroke-width="2" fill="none"></path></g></g><mask></mask><g stroke-linecap="round"><g transform="translate(608.390231388095 198.56671785121398) rotate(381.43618027784925 5.1983893559994385 16.631149946585282)"><path d="M1.12 0.49 C2.31 3.31, 7.97 12.42, 8.01 17.93 C8.05 23.44, 2.41 31.22, 1.36 33.56 M0.25 -0.29 C1.71 2.7, 9.5 10.92, 10.1 16.21 C10.71 21.51, 5.27 28.78, 3.86 31.48" stroke="#000000" stroke-width="2" fill="none"></path></g></g><mask></mask><g stroke-linecap="round"><g transform="translate(614.9276070635282 197.97651207061995) rotate(381.43618027784925 5.108485550934688 19.108226202886158)"><path d="M-1.19 0.78 C0.25 4.2, 9.66 14.92, 9.72 21.01 C9.78 27.1, 0.99 34.52, -0.85 37.35 M0.39 0.15 C2.11 3.16, 12.42 12.84, 12.05 19.16 C11.67 25.48, 0.42 34.8, -1.84 38.07" stroke="#000000" stroke-width="2" fill="none"></path></g></g><mask></mask><g stroke-linecap="round"><g transform="translate(194.78733238494 322.55458661032196) rotate(0 172.68650304699418 -70.49886902630314)"><path d="M1.31 -2.12 C-1.14 -10.47, -22.37 -44.64, -16.65 -48.32 C-10.92 -51.99, 28.92 -18.8, 35.65 -24.18 C42.38 -29.56, 18.1 -76.65, 23.75 -80.58 C29.41 -84.52, 63.15 -44.76, 69.57 -47.79 C75.99 -50.83, 56.94 -96.34, 62.28 -98.81 C67.62 -101.28, 94.16 -58.7, 101.6 -62.62 C109.05 -66.54, 99.8 -119.39, 106.93 -122.33 C114.07 -125.27, 135.13 -79.28, 144.41 -80.26 C153.7 -81.25, 154.92 -126.36, 162.65 -128.24 C170.39 -130.11, 182.34 -89.1, 190.82 -91.49 C199.31 -93.87, 205.02 -141, 213.55 -142.56 C222.08 -144.11, 232.82 -100.68, 242.01 -100.8 C251.19 -100.92, 259.71 -145.14, 268.66 -143.28 C277.6 -141.43, 286.67 -91.19, 295.69 -89.67 C304.71 -88.15, 316.24 -135.21, 322.78 -134.14 C329.32 -133.08, 327.96 -84.78, 334.94 -83.3 C341.93 -81.81, 360.33 -117.94, 364.67 -125.23 M-1.42 2.9 C-3.94 -6.5, -24.27 -47.6, -18.15 -52.96 C-12.03 -58.32, 28.04 -23.79, 35.28 -29.27 C42.52 -34.75, 20.1 -82.84, 25.29 -85.85 C30.48 -88.85, 59.94 -44.66, 66.41 -47.3 C72.89 -49.95, 58.06 -98.74, 64.14 -101.7 C70.22 -104.66, 96.27 -61.35, 102.91 -65.04 C109.54 -68.74, 97.63 -121.02, 103.93 -123.86 C110.23 -126.69, 131.8 -81.38, 140.69 -82.04 C149.58 -82.7, 148.8 -125.4, 157.27 -127.8 C165.73 -130.2, 182.61 -93.94, 191.48 -96.44 C200.36 -98.93, 201.82 -143, 210.51 -142.78 C219.2 -142.55, 233 -94.9, 243.64 -95.09 C254.28 -95.27, 265.4 -144.78, 274.36 -143.89 C283.32 -142.99, 288.84 -91.91, 297.39 -89.72 C305.93 -87.53, 319.79 -131.88, 325.65 -130.73 C331.5 -129.57, 326.35 -83.91, 332.5 -82.78 C338.65 -81.65, 357.08 -116.57, 362.54 -123.94" stroke="#000000" stroke-width="1" fill="none"></path></g></g><mask></mask><g stroke-linecap="round"><g transform="translate(23.787332384939987 201.55458661032202) rotate(0 436.99759540259845 -87.7012071325668)"><path d="M0.89 0.71 C17.01 -14.22, 42.33 -57.68, 96.95 -89.32 C151.57 -120.96, 233.81 -180.55, 328.61 -189.13 C423.41 -197.71, 575.02 -174.91, 665.76 -140.8 C756.51 -106.69, 838.56 -10.4, 873.11 15.54" stroke="#000000" stroke-width="2.5" fill="none" stroke-dasharray="1.5 8"></path></g></g><mask></mask><g stroke-linecap="round"><g transform="translate(151.78733238494 280.554586610322) rotate(0 200.37559043218596 -130.45899451705344)"><path d="M-2.3 -1.97 C-5.09 -7.59, -23.84 -26.06, -19.21 -34.66 C-14.59 -43.25, 21.97 -44.34, 25.47 -53.55 C28.97 -62.76, -3.31 -82.99, 1.8 -89.91 C6.91 -96.82, 50.87 -86.32, 56.13 -95.04 C61.4 -103.75, 28.95 -134.91, 33.39 -142.18 C37.84 -149.44, 76.27 -129.85, 82.81 -138.61 C89.34 -147.38, 66.15 -188.36, 72.59 -194.77 C79.03 -201.19, 114.54 -171.2, 121.46 -177.11 C128.37 -183.03, 106.89 -225.19, 114.1 -230.24 C121.3 -235.29, 156.54 -202.25, 164.7 -207.41 C172.86 -212.57, 156.83 -259.49, 163.04 -261.2 C169.26 -262.9, 189.7 -217.38, 202 -217.63 C214.3 -217.88, 229.55 -263.29, 236.82 -262.68 C244.1 -262.06, 237.89 -218.96, 245.67 -213.95 C253.44 -208.94, 275.64 -237.92, 283.48 -232.59 C291.31 -227.27, 284.34 -188.35, 292.67 -182 C301.01 -175.65, 326.06 -200.02, 333.49 -194.5 C340.92 -188.97, 329.65 -153.34, 337.23 -148.85 C344.82 -144.37, 372.44 -172.76, 379 -167.59 C385.57 -162.42, 369.94 -124.49, 376.6 -117.84 C383.27 -111.2, 412.63 -132.67, 419.01 -127.72 C425.4 -122.77, 415.12 -94.8, 414.91 -88.14 M1.65 3.13 C-1.13 -3.14, -24.19 -29.51, -20.48 -38.4 C-16.77 -47.28, 19.94 -41.87, 23.92 -50.19 C27.89 -58.51, -1.53 -80.83, 3.36 -88.33 C8.26 -95.84, 49.03 -86, 53.27 -95.22 C57.52 -104.44, 23.68 -136.01, 28.84 -143.64 C34 -151.28, 77.1 -133.57, 84.22 -141.04 C91.34 -148.51, 65.99 -181.97, 71.58 -188.44 C77.17 -194.92, 110.36 -173.99, 117.76 -179.9 C125.16 -185.81, 108.04 -219.66, 115.96 -223.89 C123.89 -228.12, 156.74 -199.08, 165.29 -205.31 C173.85 -211.53, 161.26 -259.05, 167.29 -261.22 C173.31 -263.38, 190.25 -217.82, 201.45 -218.29 C212.66 -218.76, 227.05 -264.46, 234.52 -264.04 C241.99 -263.62, 237.93 -221.55, 246.27 -215.78 C254.6 -210.01, 277.15 -235.16, 284.55 -229.42 C291.94 -223.67, 281.67 -187.33, 290.62 -181.32 C299.58 -175.31, 329.68 -198.7, 338.28 -193.36 C346.87 -188.01, 335.29 -154.15, 342.18 -149.26 C349.07 -144.37, 374.07 -168.79, 379.61 -164.01 C385.16 -159.23, 368.77 -126.19, 375.45 -120.56 C382.14 -114.92, 413.32 -135.35, 419.7 -130.21 C426.07 -125.08, 414.78 -96.55, 413.72 -89.72" stroke="#000000" stroke-width="1" fill="none"></path></g></g><mask></mask><g stroke-linecap="round"><g transform="translate(747.1747079518065 384.5693326534195) rotate(400.5575710490263 6.60924740762232 -28.151787030630658)"><path d="M0.74 -0.53 C2.45 -10, 9.35 -46.88, 11.43 -56.25 M-0.34 1.81 C1.63 -8.08, 11.35 -48.56, 13.55 -58.11" stroke="#000000" stroke-width="2" fill="none"></path></g></g><mask></mask><g stroke-linecap="round"><g transform="translate(756.8455206684183 335.4767010135501) rotate(400.5575710490263 4.060911430422948 27.47359670321856)"><path d="M-1.12 0.5 C0.29 9.54, 7.55 44.73, 9.25 53.71 M0.49 -0.28 C1.74 9.01, 7.33 46.45, 8.67 55.23" stroke="#000000" stroke-width="2" fill="none"></path></g></g><mask></mask><g stroke-linecap="round"><g transform="translate(737.4263766577193 370.117442505934) rotate(400.5575710490263 8.922321027707312 -0.0882428685964669)"><path d="M0.71 -0.03 C3.93 0.05, 15.39 0.82, 18.23 1.01 M-0.38 -1.1 C2.83 -1.4, 14.65 -0.81, 17.54 -0.77" stroke="#000000" stroke-width="2" fill="none"></path></g></g><mask></mask><g stroke-linecap="round"><g transform="translate(752.0191098053084 359.4700983393822) rotate(400.5575710490263 4.9631661057438805 0.5604367312894851)"><path d="M0.5 0.65 C2.15 0.9, 8.89 1.53, 10.62 1.46 M-0.69 -0.05 C0.74 -0.14, 7.84 -0.5, 9.67 -0.27" stroke="#000000" stroke-width="2" fill="none"></path></g></g><mask></mask><g stroke-linecap="round"><g transform="translate(762.2558465397807 349.92177708032403) rotate(400.5575710490263 2.216239208798015 0.1989673545003825)"><path d="M-0.01 0.75 C0.89 0.56, 4.83 -0.45, 5.91 -0.46 M-1.48 0.1 C-0.76 0.02, 3.82 1.06, 5.09 0.83" stroke="#000000" stroke-width="2" fill="none"></path></g></g><mask></mask><g stroke-linecap="round" transform="translate(773.2317075145985 332.24762446858705) rotate(400.5575710490263 4.771492826680628 4.269230423872159)"><path d="M7.31 0.08 C8.07 0.25, 7.89 1.83, 8.36 2.66 C8.83 3.5, 10.27 4.21, 10.14 5.08 C10.01 5.95, 8.6 7.4, 7.59 7.9 C6.58 8.4, 5.04 8.26, 4.08 8.06 C3.13 7.85, 2.52 7.25, 1.85 6.65 C1.18 6.04, 0.22 5.06, 0.05 4.42 C-0.12 3.78, 0.22 3.43, 0.84 2.8 C1.46 2.17, 2.73 0.94, 3.78 0.61 C4.82 0.29, 6.56 0.74, 7.12 0.85 C7.69 0.96, 7.38 1.39, 7.15 1.28 M6.06 -1.02 C7.12 -0.92, 8.71 0.59, 9.4 1.41 C10.1 2.22, 10.36 2.95, 10.22 3.86 C10.09 4.77, 9.75 6.17, 8.6 6.88 C7.45 7.59, 4.36 8.1, 3.31 8.11 C2.26 8.12, 2.88 7.32, 2.32 6.94 C1.76 6.56, -0.02 6.62, -0.05 5.82 C-0.08 5.01, 1.47 2.97, 2.14 2.11 C2.8 1.25, 3.19 1.12, 3.95 0.65 C4.7 0.17, 6.34 -0.56, 6.65 -0.76 C6.96 -0.96, 5.93 -0.84, 5.79 -0.54" stroke="#000000" stroke-width="2" fill="none"></path></g><g stroke-linecap="round"><g transform="translate(773.0832152288143 321.3312887260737) rotate(400.5575710490263 -1.9234638602080167 9.81526320628899)"><path d="M0.8 0.69 C0.04 2.5, -4.13 7.39, -4.29 10.38 C-4.46 13.37, -1.02 17.02, -0.18 18.63 M-0.24 0 C-1.08 1.55, -4.51 5.61, -4.64 8.88 C-4.77 12.15, -2.04 18.13, -1.05 19.63" stroke="#000000" stroke-width="2" fill="none"></path></g></g><mask></mask><g stroke-linecap="round"><g transform="translate(766.4294542016531 308.8590822990531) rotate(400.5575710490263 -3.605576486666564 16.87178521170972)"><path d="M1.14 1.18 C-0.27 3.89, -7.78 11.66, -7.71 16.96 C-7.64 22.26, 0.09 30.51, 1.55 32.99 M0.29 0.76 C-1.38 3.56, -8.9 13.12, -8.75 18.17 C-8.61 23.22, -0.53 28.63, 1.15 31.06" stroke="#000000" stroke-width="2" fill="none"></path></g></g><mask></mask><g stroke-linecap="round"><g transform="translate(760.3229415053539 299.18242235503556) rotate(400.5575710490263 -4.416995190615808 19.306789479494654)"><path d="M-0.18 -0.61 C-1.72 2.74, -8.06 14.82, -8.07 21.28 C-8.08 27.73, -1.61 35.39, -0.25 38.1 M-1.74 1.69 C-3.47 5.21, -8.78 13.31, -8.65 19.57 C-8.51 25.82, -2.47 36.12, -0.93 39.22" stroke="#000000" stroke-width="2" fill="none"></path></g></g><mask></mask><g stroke-linecap="round"><g transform="translate(782.3278012072091 332.96660568667835) rotate(400.5575710490263 2.8220796980751857 9.651072968766812)"><path d="M0.71 0.78 C1.74 2.36, 6.06 5.9, 6.02 8.83 C5.98 11.75, 1.59 16.56, 0.49 18.32 M-0.38 0.15 C0.53 1.95, 5.1 7, 5.16 10.17 C5.22 13.33, 0.94 17.43, -0.02 19.15" stroke="#000000" stroke-width="2" fill="none"></path></g></g><mask></mask><g stroke-linecap="round"><g transform="translate(786.496826877553 330.50695719723143) rotate(400.5575710490263 4.243670321669356 16.449137075970867)"><path d="M0.17 -0.37 C1.66 2.2, 9.46 10.64, 9.69 16.23 C9.91 21.81, 2.97 30.35, 1.51 33.14 M-1.21 -1.62 C0.11 1.01, 8.72 11.26, 8.99 17.28 C9.27 23.3, 1.84 31.71, 0.44 34.51" stroke="#000000" stroke-width="2" fill="none"></path></g></g><mask></mask><g stroke-linecap="round"><g transform="translate(791.8372691416613 332.29792723643334) rotate(400.5575710490263 5.3734259133325395 19.40192423248348)"><path d="M0.49 -0.92 C2.11 2.57, 10.21 14.04, 9.88 20.6 C9.54 27.15, 0.31 35.4, -1.54 38.43 M-0.72 1.21 C1.29 4.95, 12.04 15.77, 12.28 22.19 C12.53 28.61, 3.04 36.75, 0.76 39.72" stroke="#000000" stroke-width="2" fill="none"></path></g></g><mask></mask><g stroke-linecap="round"><g transform="translate(633.7873323849402 211.55458661032202) rotate(0 56.5134604479623 58.47765265248782)"><path d="M-0.63 1.87 C-1.46 8.4, -12.43 35.27, -5.71 40.17 C1.01 45.08, 32.16 25.4, 39.67 31.32 C47.18 37.24, 31.7 70.32, 39.36 75.7 C47.02 81.08, 78.93 56.94, 85.64 63.61 C92.34 70.29, 73.73 110.47, 79.57 115.74 C85.4 121, 113.65 98.61, 120.66 95.23 M4.22 0.42 C4.38 7.36, -5.72 39.55, -0.24 43.9 C5.25 48.24, 30.69 20.88, 37.14 26.5 C43.6 32.12, 29.68 71.3, 38.5 77.6 C47.32 83.91, 82.7 58.32, 90.06 64.33 C97.42 70.34, 77.52 107.87, 82.66 113.68 C87.8 119.49, 113.51 101.15, 120.9 99.19" stroke="#000000" stroke-width="1" fill="none"></path></g></g><mask></mask><g stroke-opacity="0.7" fill-opacity="0.7" transform="translate(5.341386956500514 74.81710444096453) rotate(324.45187968060185 101.43131765164662 24.502448948394786)"><text x="101.43131765164661" y="0" font-family="Virgil, Segoe UI Emoji" font-size="39.20391831743166px" fill="#000000" text-anchor="middle" style="white-space: pre;" direction="ltr" dominant-baseline="text-before-edge">Ionosphere</text></g><g transform="translate(443.9164391834048 47.99158828089452) rotate(36.59980667478049 71.39670795985307 23.210770285171463)"><text x="71.39670795985309" y="0" font-family="Virgil, Segoe UI Emoji" font-size="37.137232456274354px" fill="#000000" text-anchor="middle" style="white-space: pre;" direction="ltr" dominant-baseline="text-before-edge">skywave</text></g><g transform="translate(253.33448338625556 149.76379784790782) rotate(349.1315050458558 94.86289371514306 21.822782673449524)"><text x="94.86289371514303" y="0" font-family="Virgil, Segoe UI Emoji" font-size="34.91645227751924px" fill="#000000" text-anchor="middle" style="white-space: pre;" direction="ltr" dominant-baseline="text-before-edge">groundwave</text></g><g transform="translate(677.7999073296834 179.30552931367606) rotate(32.799531272619234 49.0944628703694 40.429148333051984)"><text x="49.094462870369355" y="0" font-family="Virgil, Segoe UI Emoji" font-size="32.34331866644159px" fill="#000000" text-anchor="middle" style="white-space: pre;" direction="ltr" dominant-baseline="text-before-edge">line of</text><text x="49.094462870369355" y="40.429148333051984" font-family="Virgil, Segoe UI Emoji" font-size="32.34331866644159px" fill="#000000" text-anchor="middle" style="white-space: pre;" direction="ltr" dominant-baseline="text-before-edge">sight</text></g><g stroke-opacity="0.7" fill-opacity="0.7" transform="translate(374.4706667355259 342.14833212771083) rotate(0.9710219310791725 64.31666564941406 28.40625448261119)"><text x="64.31666564941406" y="0" font-family="Virgil, Segoe UI Emoji" font-size="45.45000717217792px" fill="#000000" text-anchor="middle" style="white-space: pre;" direction="ltr" dominant-baseline="text-before-edge">Earth</text></g></svg>